PathFileType	4	(X/Y/Z)	./resultDataOpenSim/trcMotMarkerGrf/sub10/qtm-14-07.trc
DataRate	CameraRate	NumFrames	NumMarkers	Units	OrigDataRate	OrigDataStartFrame	OrigNumFrames
250.000000	250.000000	9	24	m	250.000000	128	511
Frame#	Time	L.Toe.Tip			R.Toe.Tip			L.Ankle.Lat			R.Ankle.Lat			L.Ankle.Med			R.Ankle.Med			L.Heel			R.Heel			L.Knee.Lat			R.Knee.Lat			L.Knee.Med			R.Knee.Med			L.Thigh.Upper			R.Thigh.Upper			L.ASIS			R.ASIS			V.Sacral			L.Acromium			R.Acromium			C7			L.Elbow			R.Elbow			L.Wrist.Lat			R.Wrist.Lat
		X1	Y1	Z1	X2	Y2	Z2	X3	Y3	Z3	X4	Y4	Z4	X5	Y5	Z5	X6	Y6	Z6	X7	Y7	Z7	X8	Y8	Z8	X9	Y9	Z9	X10	Y10	Z10	X11	Y11	Z11	X12	Y12	Z12	X13	Y13	Z13	X14	Y14	Z14	X15	Y15	Z15	X16	Y16	Z16	X17	Y17	Z17	X18	Y18	Z18	X19	Y19	Z19	X20	Y20	Z20	X21	Y21	Z21	X22	Y22	Z22	X23	Y23	Z23	X24	Y24	Z24

128	0.508	-0.31069787	0.083027786	-0.16035746	-0.76312775	0.039282252	0.013670471	-0.44766962	0.077191292	-0.17015151	-0.90823676	0.053606926	0.04664996	-0.42962097	0.10679807	-0.090067271	-0.88510492	0.080700579	-0.03764064	-0.49611833	0.034221148	-0.11504723	-0.95521577	0.029931972	-0.0034612919	-0.49914628	0.46511204	-0.19346359	-0.79670474	0.44493151	0.091553582	-0.47327789	0.44470067	-0.074428716	-0.78432003	0.44545327	-0.039144267	-0.64091575	0.82269064	-0.23786013	-0.73035828	0.85544956	0.13830663	-0.60834718	0.93714467	-0.16411345	-0.64015795	0.9431013	0.079392365	-0.81850982	0.94100557	-0.079331593	-0.6971095	1.4039188	-0.20063764	-0.72006093	1.3976137	0.12624088	-0.79395776	1.428098	-0.042057915	-0.82154785	1.0855536	-0.25497273	-0.68915937	1.0492007	0.21144241	-0.73991625	0.86132805	-0.30505577	-0.46892569	0.93612725	0.23085324
129	0.512	-0.2938378	0.086108072	-0.15737442	-0.7631413	0.039138503	0.013620128	-0.43073195	0.077083896	-0.16898379	-0.90832926	0.053677409	0.046523364	-0.41397679	0.10765074	-0.088686192	-0.88491063	0.080615749	-0.037826977	-0.47815662	0.032896508	-0.11452556	-0.95521706	0.030044072	-0.0035807577	-0.49258531	0.46355023	-0.19328523	-0.79408729	0.44426307	0.091197924	-0.46780325	0.44333228	-0.073974647	-0.78119103	0.4447263	-0.039344509	-0.63466809	0.82149361	-0.23776802	-0.7260168	0.85451714	0.13818699	-0.60193923	0.93586946	-0.16377577	-0.63519069	0.94183585	0.079529184	-0.81058938	0.93955195	-0.077856572	-0.69181145	1.4025848	-0.20052364	-0.71494231	1.3962696	0.12638985	-0.78887846	1.42672	-0.042265083	-0.81747936	1.0847126	-0.25473105	-0.681853	1.0479443	0.21162524	-0.73645673	0.86030446	-0.3051627	-0.46016261	0.93746743	0.22993348
130	0.516	-0.27742528	0.089247547	-0.15428866	-0.76313109	0.039025406	0.013602439	-0.41412894	0.077163	-0.16791419	-0.90838388	0.053743743	0.046397041	-0.39873476	0.10871189	-0.087367183	-0.88469101	0.080540756	-0.03802447	-0.46079607	0.032015268	-0.11407373	-0.95521949	0.030171475	-0.003714011	-0.4859622	0.46202703	-0.19305772	-0.7911678	0.44358833	0.090937559	-0.4624292	0.44190612	-0.073522335	-0.77797452	0.4439966	-0.039543207	-0.62846439	0.82022559	-0.23766382	-0.72164291	0.85355355	0.13805955	-0.59568009	0.934534	-0.16346258	-0.63013545	0.94050027	0.07959812	-0.80349907	0.93815655	-0.077631275	-0.68654418	1.401222	-0.20043028	-0.70980216	1.3948893	0.12652726	-0.78395222	1.4253075	-0.042998083	-0.81282681	1.0838385	-0.25350084	-0.67460296	1.0466475	0.21177777	-0.73307175	0.85923207	-0.30528324	-0.45147455	0.93876706	0.22896454
131	0.52	-0.26149845	0.092482312	-0.15112424	-0.76309219	0.038959569	0.013620132	-0.39788386	0.077460223	-0.16696579	-0.90832771	0.053824891	0.046278702	-0.38396501	0.10986822	-0.086232283	-0.88442642	0.08048238	-0.038246015	-0.44399144	0.031478265	-0.11380766	-0.95522165	0.030308735	-0.0038688307	-0.47923728	0.4605647	-0.19279771	-0.78807393	0.44289331	0.090716553	-0.45711961	0.44043678	-0.073057571	-0.77467135	0.44326517	-0.039754589	-0.62226448	0.81889374	-0.23754525	-0.71723987	0.85254928	0.13792833	-0.58944353	0.93314528	-0.1631355	-0.62495674	0.93907522	0.079579522	-0.79758152	0.93682367	-0.078666485	-0.68123749	1.3998292	-0.2003308	-0.70464179	1.3934659	0.12665233	-0.77911878	1.4238682	-0.044090374	-0.80809781	1.0829074	-0.25212933	-0.66738656	1.0453116	0.21187803	-0.72966989	0.85811863	-0.30538997	-0.44284098	0.9400362	0.22793478
132	0.524	-0.24607262	0.095875098	-0.14790868	-0.76304487	0.038919542	0.013653429	-0.38200387	0.077989132	-0.16615033	-0.9081858	0.053925801	0.046162921	-0.36971875	0.11100998	-0.085345637	-0.88412607	0.080436871	-0.038484061	-0.42766338	0.031133614	-0.113835	-0.95522199	0.030450255	-0.0040505603	-0.47239524	0.45917489	-0.19249264	-0.78491704	0.44216203	0.090479017	-0.45187236	0.43893111	-0.07257475	-0.77128271	0.44252978	-0.039992123	-0.6159736	0.81750798	-0.23740964	-0.71279795	0.85150391	0.13777336	-0.58316	0.93171653	-0.16278067	-0.61971511	0.93758619	0.079518113	-0.79272201	0.93552295	-0.080576645	-0.67588878	1.398407	-0.20021875	-0.69947055	1.3919996	0.12676926	-0.77421469	1.4223989	-0.045049077	-0.80372325	1.0819093	-0.25133454	-0.66019778	1.043936	0.21191751	-0.72604985	0.85699407	-0.30543589	-0.43425818	0.94127104	0.22684165
133	0.528	-0.23117358	0.099449456	-0.14468105	-0.76300188	0.038882698	0.013686877	-0.36650338	0.078740215	-0.16547445	-0.90804474	0.05403806	0.046031917	-0.35603844	0.11207292	-0.084650666	-0.8838214	0.080392974	-0.038710867	-0.4118158	0.030886337	-0.11417501	-0.95521815	0.030597705	-0.0042576392	-0.46546966	0.45785584	-0.19209948	-0.78175223	0.44138481	0.090191773	-0.44670425	0.43738763	-0.072077595	-0.76781639	0.44178374	-0.04025236	-0.60953837	0.81607858	-0.23725714	-0.70831845	0.85042673	0.13758695	-0.57683658	0.93026121	-0.16240925	-0.61453417	0.93609655	0.079494444	-0.78841138	0.93421502	-0.082860287	-0.67052808	1.396958	-0.20010636	-0.69429021	1.3904991	0.12687829	-0.76913164	1.4208966	-0.045550765	-0.79969886	1.0808602	-0.25113193	-0.65304031	1.0425206	0.21189396	-0.72210384	0.85588734	-0.30539879	-0.42573451	0.94246296	0.22569123
134	0.532	-0.21686586	0.10314263	-0.1414853	-0.76296138	0.038842513	0.013716452	-0.35143339	0.079682863	-0.16494696	-0.90795411	0.054154938	0.045871427	-0.34293548	0.11304287	-0.08406031	-0.88353087	0.080348615	-0.038903959	-0.39650483	0.030706977	-0.11478804	-0.95520584	0.030761719	-0.0044798753	-0.45851523	0.45661058	-0.19159441	-0.77857787	0.44056051	0.089846082	-0.44160961	0.43579806	-0.07156629	-0.7642775	0.44101743	-0.040517891	-0.60303781	0.81460814	-0.23709944	-0.70380962	0.84931718	0.1373787	-0.57049579	0.92878689	-0.16203319	-0.60947213	0.93463979	0.079541261	-0.78384191	0.93284698	-0.084879157	-0.6651734	1.3954864	-0.20001129	-0.68909372	1.3889726	0.12697344	-0.76389127	1.4193647	-0.045674681	-0.79577034	1.0797874	-0.2511624	-0.64592134	1.041067	0.21180848	-0.71793702	0.85480984	-0.30531325	-0.41729516	0.94360809	0.22450568
135	0.536	-0.20322265	0.10683036	-0.13836393	-0.76291766	0.038803277	0.013742718	-0.33686976	0.080763365	-0.16456686	-0.90787613	0.054280995	0.045687516	-0.330373	0.1139422	-0.083530183	-0.88324357	0.080313513	-0.039062764	-0.38176544	0.030587671	-0.11563611	-0.95518056	0.030954267	-0.0047023778	-0.45157227	0.4554513	-0.19100266	-0.77537926	0.43969063	0.089435742	-0.43653177	0.43415662	-0.071024685	-0.7606486	0.44022557	-0.040770752	-0.59659969	0.8130956	-0.23695561	-0.69926956	0.84816033	0.13715257	-0.56414155	0.92729537	-0.16165694	-0.60448685	0.93319622	0.079630352	-0.77837868	0.93138095	-0.086153244	-0.65982671	1.3939984	-0.19994593	-0.68387468	1.3874211	0.12705144	-0.75856645	1.4178096	-0.045652784	-0.79173122	1.0787045	-0.25113998	-0.63884586	1.0395779	0.21166391	-0.713757	0.85375526	-0.30525106	-0.40897799	0.94470743	0.22331428
136	0.54	-0.1902652	0.11038834	-0.13535789	-0.76286693	0.038769626	0.013765224	-0.32286756	0.081917472	-0.16430678	-0.90774319	0.054427622	0.045502725	-0.31830702	0.11478891	-0.083047705	-0.88293932	0.08029438	-0.03920261	-0.36759194	0.030509082	-0.11668595	-0.95514044	0.031182523	-0.0049115165	-0.44463895	0.45438932	-0.19036999	-0.772148	0.43877362	0.088950429	-0.43139473	0.43247901	-0.070430252	-0.75687991	0.4394137	-0.041016849	-0.59025248	0.81154733	-0.23683792	-0.6946827	0.84694004	0.1368968	-0.55776866	0.92578724	-0.16128282	-0.59950974	0.93173539	0.079724727	-0.7719316	0.92981549	-0.086633898	-0.65446595	1.3925015	-0.19990834	-0.67863324	1.3858453	0.12711657	-0.75320607	1.4162355	-0.045632806	-0.78752942	1.0776121	-0.2509849	-0.63181453	1.038055	0.21146073	-0.70967475	0.85270333	-0.30526456	-0.40080699	0.94576132	0.22213222
